<?xml version="1.0" encoding="UTF-8"?><svg xmlns="http://www.w3.org/2000/svg" xmlns:xlink="http://www.w3.org/1999/xlink" version="1.1" id="Layer_1" x="0px" y="0px" viewBox="0 0 16 16" xml:space="preserve"><path d="M15.5 13h-7c-.276 0-.5-.224-.5-.5v-10a.5.5 0 0 1 .5-.5h7a.5.5 0 0 1 .5.5v10a.5.5 0 0 1-.5.5z" fill="#ECEFF1"/><path d="M10.5 5h-2a.5.5 0 0 1 0-1h2a.5.5 0 0 1 0 1z" fill="#388E3C"/><path d="M10.5 7h-2a.5.5 0 0 1 0-1h2a.5.5 0 0 1 0 1z" fill="#388E3C"/><path d="M10.5 9h-2a.5.5 0 0 1 0-1h2a.5.5 0 0 1 0 1z" fill="#388E3C"/><path d="M10.5 11h-2a.5.5 0 0 1 0-1h2a.5.5 0 0 1 0 1z" fill="#388E3C"/><path d="M13.5 5h-1a.5.5 0 0 1 0-1h1a.5.5 0 0 1 0 1z" fill="#388E3C"/><path d="M13.5 7h-1a.5.5 0 0 1 0-1h1a.5.5 0 0 1 0 1z" fill="#388E3C"/><path d="M13.5 9h-1a.5.5 0 0 1 0-1h1a.5.5 0 0 1 0 1z" fill="#388E3C"/><path d="M13.5 11h-1a.5.5 0 0 1 0-1h1a.5.5 0 0 1 0 1z" fill="#388E3C"/><path d="M8.819.115a.491.491 0 0 0-.411-.106l-8 1.5A.499.499 0 0 0 0 2v11a.5.5 0 0 0 .408.491l8 1.5A.498.498 0 0 0 9 14.5V.5a.499.499 0 0 0-.181-.385z" fill="#2E7D32"/><path d="M6.876 9.171L5.295 7.364l1.599-2.056a.5.5 0 0 0-.789-.615L4.624 6.597 3.376 5.171a.5.5 0 1 0-.752.658l1.375 1.572-1.394 1.792a.5.5 0 1 0 .79.614l1.275-1.64 1.454 1.661a.496.496 0 0 0 .705.048.5.5 0 0 0 .047-.705z" fill="#FAFAFA"/><metadata><rdf:RDF xmlns:rdf="http://www.w3.org/1999/02/22-rdf-syntax-ns#" xmlns:rdfs="http://www.w3.org/2000/01/rdf-schema#" xmlns:dc="http://purl.org/dc/elements/1.1/"><rdf:Description about="https://iconscout.com/legal#licenses" dc:title="microsoft,excel,logo,color,e" dc:description="microsoft,excel,logo,color,e" dc:publisher="Iconscout" dc:date="2018-02-17" dc:format="image/svg+xml" dc:language="en"><dc:creator><rdf:Bag><rdf:li>Pixel Icons</rdf:li></rdf:Bag></dc:creator></rdf:Description></rdf:RDF></metadata></svg>