<svg xmlns="http://www.w3.org/2000/svg" xmlns:xlink="http://www.w3.org/1999/xlink" version="1.1" x="0px" y="0px" viewBox="0 -0.05868544600938497 100 125.11737089201877" enable-background="new 0 0 100 100" xml:space="preserve" width="100%" height="100%" ><rect id="svgEditorBackground" x="0" y="0" width="100" height="125" style="fill:none;stroke:none;"/><defs id="svgEditorDefs"><linearGradient gradientUnits="objectBoundingBox" id="lgrd2-fire" spreadMethod="pad" x1="0%" x2="100%" y1="0%" y2="0%"><stop offset="0%" style="stop-color:rgb(255,255,0);stop-opacity:1"/><stop offset="100%" style="stop-color:rgb(255,0,0);stop-opacity:1"/></linearGradient><pattern height="10" id="hatch-black-45" patternTransform="rotate(45) scale(0.4)" patternUnits="userSpaceOnUse" viewBox="0 0 10 10" width="10" x="0" y="0"><line style="stroke:black;stroke-width:1px;" x1="0" x2="10" y1="5" y2="5"/></pattern></defs><g><path d="M13.8,86.8c-0.3000000000000007,0,-0.5,-0.20000000000000284,-0.5,-0.5s0.1999999999999993,-0.5,0.5,-0.5c19.100000000000005,0,23.900000000000002,-21.299999999999997,27.400000000000002,-36.9c2.200000000000003,-9.600000000000001,3.8999999999999986,-17.3,8.299999999999997,-17.4c0,0,0,0,0,0c0.29999999999999716,0,0.5,0.1999999999999993,0.5,0.5c0,0.29999999999999716,-0.20000000000000284,0.5,-0.5,0.5c-3.6000000000000014,0.10000000000000142,-5.399999999999999,7.799999999999997,-7.299999999999997,16.6c-3.6000000000000014,15.899999999999999,-8.5,37.699999999999996,-28.400000000000002,37.699999999999996Z" style="stroke: rgb(198, 203, 203);stroke-width:2;"/></g><g><path d="M85.2,86.8c-19.89999999999999,0,-24.799999999999997,-21.799999999999997,-28.4,-37.7c-2,-8.899999999999999,-3.700000000000003,-16.5,-7.299999999999997,-16.6c-0.29999999999999716,0,-0.5,-0.20000000000000284,-0.5,-0.5c0,-0.3000000000000007,0.20000000000000284,-0.5,0.5,-0.5c4.399999999999999,0.10000000000000142,6.100000000000001,7.799999999999997,8.300000000000004,17.4c3.5,15.599999999999994,8.299999999999997,36.89999999999999,27.400000000000006,36.89999999999999c0.29999999999999716,0,0.5,0.20000000000000284,0.5,0.5s-0.20000000000001705,0.5000000000000142,-0.5000000000000142,0.5000000000000142Z" style="stroke:#C6C9CF;stroke-width:2;"/></g><path d="M92.2,90.5h-81c-0.3000000000000007,0,-0.5,-0.20000000000000284,-0.5,-0.5v-80c0,-0.3000000000000007,0.1999999999999993,-0.5,0.5,-0.5s0.5,0.1999999999999993,0.5,0.5v79.5h80.5c0.29999999999999716,0,0.5,0.20000000000000284,0.5,0.5s-0.20000000000000284,0.5,-0.5,0.5Z" id="e1_path" style="stroke:#C5CACF;stroke-width:2;"/><text dy="-0.5em" style="fill:black;font-family:Arial;font-size:20px;" id="e3_texte"/></svg>