<svg height="512pt" viewBox="-13 0 512 512.00184" width="512pt" xmlns="http://www.w3.org/2000/svg"><path d="m484.914062 482.308594c-4.933593-10.617188-13.351562-13.886719-22.238281-14.960938-1.648437-20.574218-4.878906-35.988281-10.417969-49.726562-5.175781-12.839844-15.179687-30.484375-33.417968-41.644532-8.925782-5.457031-18.496094-8.5-27.660156-10.050781-.191407-.515625-.484376-1.003906-.894532-1.425781-25.6875-26.257812-48.480468-55.425781-67.757812-86.695312l74.679687-108.246094c2.65625-.070313 5.3125-.386719 7.921875-1.003906 17.828125-4.222657 29.769532-18.078126 31.160156-36.164063 1.484376-19.265625-9.394531-37.039063-27.066406-44.222656-10.15625-4.128907-21.042968-3.921875-30.691406.183593-40.28125-11.277343-79.652344-22.003906-117.726562-32.378906-38.128907-10.386718-77.554688-21.128906-117.882813-32.421875-.402344-.113281-.804687-.140625-1.199219-.128906-3.304687-9.359375-10.410156-17.089844-19.984375-20.980469-12.277343-4.988281-25.878906-2.210937-35.492187 7.25-9.921875 9.761719-13 23.78125-8.03125 36.59375 1.734375 4.480469 4.476562 8.441406 7.859375 11.75l-53.09375 94.355469c-.578125 1.023437-.675781 2.25-.277344 3.351563.402344 1.105468 1.261719 1.980468 2.359375 2.394531l8.347656 3.164062-12.335937 32.894531c-.214844.082032-.429688.175782-.632813.296876l-21.253906 12.828124c-1.90625 1.148438-2.519531 3.628907-1.371094 5.535157.757813 1.253906 2.089844 1.949219 3.457032 1.949219.707031 0 1.425781-.1875 2.078124-.582032l19.941407-12.03125 6.078125 22.839844c.480468 1.804688 2.109375 2.996094 3.894531 2.996094.34375 0 .691406-.042969 1.039063-.136719 2.152343-.570313 3.429687-2.78125 2.859374-4.933594l-7.011718-26.335937c-.15625-.585938-.441406-1.097656-.804688-1.53125l11.601563-30.933594 9.019531 3.414062c.46875.179688.949219.261719 1.425781.261719 1.511719 0 2.949219-.855469 3.636719-2.292969l45.320312-94.847656c.347657-.726562.449219-1.503906.355469-2.246094.136719.003907.273438.015626.410157.015626 2.429687 0 4.863281-.269532 7.257812-.835938 4.140625-.980469 7.875-2.621094 11.144531-4.78125l220.066407 73.9375c-15.167969 12.960938-31.390626 26.601562-47.136719 39.832031-17.03125 14.316407-34.640625 29.117188-50.867188 43.027344-10.972656 1.972656-21.378906 7.296875-29.945312 15.726563-17.015625 16.742187-22.300781 40.785156-13.785157 62.742187 5.265626 13.582031 15.832032 24.503906 28.574219 31.105469-.152343.953125.023438 1.960937.59375 2.832031l45.179688 69.0625c.320312.488281.730469.878906 1.191406 1.175781-15.789063 15.675782-27.617187 35.460938-33.757813 56.8125-.332031 1.152344-.113281 2.328125.484376 3.269532l-3.648438-.082032c-7.140625-.160156-16.925781-.371094-24.652344 4.632813-6.644531 4.300781-10.761718 11.925781-10.746094 19.894531.019532 7.851562 4.101563 15.472656 10.652344 19.890625 7.226563 4.878906 16.320313 5.296875 23.546875 5.296875.777344 0 1.53125-.003906 2.261719-.007812l215.636719-1.375c4.476562-.027344 10.046875-.0625 14.902343-2.875 8.105469-4.699219 11.175782-16.105469 6.84375-25.433594zm-78.726562-386.671875c16.640625 6.765625 23.070312 23.023437 22.0625 36.132812-1.132812 14.683594-10.46875 25.5-24.976562 28.933594-15.832032 3.75-34.214844-6.050781-40.164063-21.390625-4.9375-12.746094-1.855469-26.71875 8.046875-36.460938 6.402344-6.296874 14.566406-9.613281 22.90625-9.613281 4.0625.003907 8.164062.789063 12.125 2.398438zm-40.6875 1.46875c-8.957031 8.8125-13.386719 20.441406-12.714844 32.238281l-74.324218-24.96875 9.894531-32.535156c26.363281 7.195312 53.285156 14.585937 80.628906 22.21875-1.195313.949218-2.367187 1.949218-3.484375 3.046875zm-84.925781-27.386719-9.757813 32.085938-76.378906-25.660157 5.984375-28.308593c19.714844 5.410156 39.152344 10.707031 58.261719 15.914062 7.246094 1.976562 14.554687 3.96875 21.890625 5.96875zm-87.941407-24.019531-5.890624 27.859375-50.316407-16.902344c4.128907-5 6.695313-11.289062 7.242188-18.394531.160156-2.074219.136719-4.128907-.046875-6.144531 16.503906 4.613281 32.847656 9.136718 49.011718 13.582031zm-133.277343 113.011719-17.050781-6.457032 50.203124-89.207031c3.242188 1.992187 6.777344 3.492187 10.457032 4.398437zm57.164062-98.9375c-12.128906 2.871093-26.226562-4.640626-30.789062-16.40625-4.523438-11.667969.222656-22.078126 6.171875-27.929688 4.902344-4.824219 11.152344-7.359375 17.53125-7.359375 3.105468 0 6.242187.597656 9.265625 1.828125 12.769531 5.191406 17.703125 17.671875 16.929687 27.734375-.867187 11.234375-8.007812 19.507813-19.109375 22.132813zm191.121094 123.007812c16.023437-13.464844 32.542969-27.351562 47.960937-40.539062 5.328126 13.730468 18.199219 23.671874 32.359376 26.511718l-68.808594 99.742188c-3.375-18.210938-14.90625-36.667969-36.777344-45.5625-5.726562-2.328125-11.621094-3.65625-17.5-4.046875 13.890625-11.832031 28.523438-24.136719 42.765625-36.105469zm-92.269531 112.410156c-7.332032-18.910156-2.761719-39.632812 11.921875-54.082031 14.136719-13.90625 34.082031-18.007813 52.042969-10.703125 24.648437 10.019531 34.171874 34.082031 32.675781 53.488281-1.679688 21.824219-15.550781 37.898438-37.101563 43-23.460937 5.554688-50.722656-8.964843-59.539062-31.703125zm73.582031 101.5-41.171875-62.929687c5.378906 1.570312 10.953125 2.414062 16.542969 2.414062 4.164062 0 8.34375-.464843 12.441406-1.433593 23.488281-5.558594 39.609375-23.160157 42.859375-46.390626 17.363281 27.253907 37.375 52.867188 59.617188 76.304688-5.480469-.257812-10.605469-.074219-15.097657.308594-26.113281 2.234375-51.640625 12.628906-71.882812 29.269531-1.078125.886719-2.128907 1.796875-3.175781 2.714844-.046876-.085938-.078126-.175781-.132813-.257813zm-31.570313 64.628906c6.800782-23.628906 21.003907-45.242187 40-60.859374 18.996094-15.613282 42.949219-25.367188 67.449219-27.460938 13.480469-1.15625 33.0625-.378906 49.800781 9.855469 16.359376 10.007812 25.425782 26.070312 30.144532 37.785156 5.121094 12.691406 8.160156 27.046875 9.769531 46.191406-1.082031-.023437-2.160156-.042969-3.222656-.058593-.9375-.011719-1.871094-.027344-2.800781-.046876l-191.726563-4.214843c.25-.359375.460937-.75.585937-1.191407zm216.648438 39.4375c-3.003906 1.742188-7.207031 1.769532-10.914062 1.792969l-215.636719 1.375c-8.378907.050781-15.753907-.203125-21.25-3.910156-4.296875-2.898437-7.082031-8.089844-7.09375-13.226563-.011719-5.175781 2.761719-10.320312 7.0625-13.109374 4.386719-2.835938 10-3.386719 16.367187-3.386719 1.214844 0 2.460938.023437 3.726563.050781l202.050781 4.441406c.949219.019532 1.902344.035156 2.855469.050782 11.539062.175781 21.503906.328124 26.398437 10.867187 2.25 4.84375 1.335938 12.214844-3.566406 15.054687zm0 0"/><path d="m376.308594 381.597656c-16.417969-2.941406-31.785156 4.570313-39.164063 19.136719-6.867187 13.570313-4.144531 31.324219 6.472657 42.214844 6.914062 7.089843 16.820312 10.90625 26.683593 10.90625 5.285157 0 10.558594-1.097657 15.355469-3.375 13.738281-6.523438 22.453125-22.226563 20.726562-37.335938-1.855468-16.222656-13.660156-28.605469-30.074218-31.546875zm5.886718 61.601563c-10.722656 5.089843-24.515624 2.617187-32.804687-5.878907-8.285156-8.5-10.410156-22.355468-5.046875-32.945312 6.957031-13.746094 20.796875-16.585938 30.542969-14.839844 9.738281 1.746094 21.734375 9.214844 23.488281 24.527344 1.347656 11.789062-5.457031 24.046875-16.179688 29.136719zm0 0"/><path d="m289.753906 280.722656c.984375-12.757812-6.222656-24.53125-17.933594-29.289062-10.066406-4.09375-21.210937-1.816406-29.089843 5.933594-8.121094 7.992187-10.640625 19.472656-6.574219 29.964843 4.210938 10.855469 15.523438 18.144531 26.929688 18.144531 1.988281 0 3.984374-.222656 5.941406-.6875 11.855468-2.804687 19.796875-12.027343 20.726562-24.066406zm-22.585937 16.21875c-9.25 2.195313-20.011719-3.542968-23.492188-12.523437-3.449219-8.898438.167969-16.839844 4.707031-21.300781 3.773438-3.710938 8.4375-5.644532 13.253907-5.644532 2.375 0 4.785156.46875 7.144531 1.429688 9.757812 3.964844 13.527344 13.503906 12.933594 21.199218-.65625 8.546876-6.09375 14.84375-14.546875 16.839844zm0 0"/><path d="m395.320312 148.144531c1.472657 0 2.953126-.164062 4.40625-.507812 8.8125-2.085938 14.71875-8.945313 15.40625-17.894531.726563-9.441407-4.609374-18.152344-13.277343-21.675782-7.484375-3.042968-15.769531-1.355468-21.628907 4.40625-6.019531 5.925782-7.886718 14.441406-4.867187 22.226563 3.117187 8.046875 11.503906 13.445312 19.960937 13.445312zm-9.4375-29.925781c2.398438-2.359375 5.359376-3.585938 8.414063-3.585938 1.503906 0 3.027344.296876 4.519531.902344 6.246094 2.539063 8.65625 8.652344 8.277344 13.585938-.417969 5.414062-3.863281 9.402344-9.222656 10.667968-5.910156 1.402344-12.773438-2.265624-14.996094-8-2.195312-5.664062.113281-10.722656 3.007812-13.570312zm0 0"/><path d="m115.90625 18.179688c-6.234375-2.535157-13.136719-1.132813-18.011719 3.664062-5.007812 4.925781-6.558593 12.011719-4.046875 18.488281 2.589844 6.683594 9.558594 11.167969 16.589844 11.167969 1.226562 0 2.457031-.136719 3.664062-.421875 7.339844-1.738281 12.257813-7.449219 12.832032-14.910156.605468-7.832031-3.828125-15.0625-11.027344-17.988281zm2.988281 17.367187c-.144531 1.871094-1.082031 6.367187-6.648437 7.683594h-.003906c-4.28125 1.015625-9.261719-1.648438-10.878907-5.8125-1.585937-4.097657.089844-7.761719 2.1875-9.828125 1.730469-1.703125 3.871094-2.589844 6.074219-2.589844 1.078125 0 2.175781.210938 3.246094.648438 4.542968 1.847656 6.300781 6.304687 6.023437 9.898437zm0 0"/><path d="m187.980469 294.765625c1.089843-3.320313.820312-6.863281-.753907-9.980469l-10.183593-20.121094c-3.253907-6.429687-11.136719-9.019531-17.566407-5.761718l-17.121093 8.664062c-6.8125-6.53125-14.910157-11.667968-23.683594-15.039062v-18.707032c0-7.210937-5.867187-13.074218-13.074219-13.074218h-22.550781c-7.210937 0-13.074219 5.863281-13.074219 13.074218v17.960938c-9.257812 3.230469-17.808594 8.398438-25.011718 15.113281l-15.792969-7.992187c-3.117188-1.578125-6.664063-1.84375-9.980469-.757813-3.316406 1.089844-6.011719 3.40625-7.589844 6.519531l-10.179687 20.121094c-1.578125 3.117188-1.847657 6.660156-.757813 9.980469 1.089844 3.316406 3.402344 6.011719 6.519532 7.589844l15.742187 7.964843c-.332031 2.808594-.503906 5.625-.503906 8.410157 0 3.035156.207031 6.125.613281 9.214843l-15.851562 8.023438c-3.117188 1.574219-5.429688 4.269531-6.519532 7.589844-1.089844 3.316406-.820312 6.859375.757813 9.976562l10.179687 20.121094c1.578125 3.117188 4.273438 5.429688 7.589844 6.519531 3.320312 1.089844 6.863281.820313 9.980469-.757812l16.398437-8.296875c7.066406 6.4375 15.410156 11.414062 24.40625 14.554687v18.828125c0 7.207032 5.863282 13.074219 13.070313 13.074219h22.550781c7.210938 0 13.074219-5.867187 13.074219-13.074219v-19.574218c8.523437-3.273438 16.417969-8.21875 23.097656-14.472657l17.707031 8.960938c6.429688 3.253906 14.3125.671875 17.570313-5.761719l10.179687-20.121094c3.253906-6.433594.667969-14.3125-5.761718-17.566406l-17.742188-8.980469c.320312-2.753906.484375-5.523437.484375-8.257812 0-2.460938-.132813-4.953125-.394531-7.441407l17.648437-8.933593c3.121094-1.578125 5.4375-4.273438 6.523438-7.589844zm-7.660157-2.515625c-.417968 1.273438-1.304687 2.308594-2.5 2.910156l-20.183593 10.214844c-1.546875.78125-2.421875 2.464844-2.167969 4.179688.445312 3.0625.671875 6.148437.671875 9.175781 0 3.289062-.265625 6.628906-.789063 9.925781-.273437 1.730469.601563 3.441406 2.164063 4.230469l20.304687 10.273437c2.46875 1.246094 3.457032 4.269532 2.210938 6.734375l-10.183594 20.121094c-1.246094 2.464844-4.265625 3.457031-6.730468 2.210937l-20.28125-10.265624c-1.566407-.792969-3.464844-.480469-4.695313.773437-6.90625 7.035156-15.476563 12.40625-24.785156 15.539063-1.640625.550781-2.746094 2.089843-2.746094 3.820312v22.40625c0 2.765625-2.25 5.011719-5.011719 5.011719h-22.550781c-2.765625 0-5.011719-2.246094-5.011719-5.011719v-21.753906c0-1.777344-1.164062-3.347656-2.867187-3.859375-9.765625-2.941407-18.773438-8.304688-26.050781-15.511719-.773438-.765625-1.796876-1.167969-2.839844-1.167969-.617188 0-1.238282.144531-1.816406.4375l-18.933594 9.578125c-1.195313.605469-2.554688.710938-3.824219.292969-1.273437-.417969-2.304687-1.308594-2.910156-2.5l-10.179688-20.121094c-.605469-1.195312-.710937-2.554687-.292969-3.824219.417969-1.273437 1.304688-2.304687 2.5-2.910156l18.457032-9.339844c1.582031-.800781 2.453125-2.539062 2.152344-4.285156-.628907-3.621094-.945313-7.257812-.945313-10.808594 0-3.328124.273437-6.714843.8125-10.0625.277344-1.730468-.597656-3.445312-2.160156-4.238281l-18.316407-9.265625c-1.195312-.605468-2.082031-1.636718-2.5-2.910156-.414062-1.273438-.3125-2.628906.292969-3.824219l10.179688-20.121093c.605469-1.195313 1.636719-2.082032 2.910156-2.5 1.273437-.417969 2.628906-.3125 3.824219.289062l18.363281 9.292969c1.5625.792969 3.457031.480469 4.691406-.765625 7.378907-7.484375 16.570313-13.039063 26.582031-16.050782 1.707032-.515624 2.871094-2.082031 2.871094-3.863281v-20.890625c0-2.761718 2.246094-5.007812 5.007813-5.007812h22.550781c2.765625 0 5.011719 2.246094 5.011719 5.007812v21.542969c0 1.730469 1.105469 3.269531 2.746093 3.820313 9.546876 3.214843 18.300782 8.777343 25.308594 16.089843 1.226563 1.28125 3.148438 1.605469 4.730469.804688l19.722656-9.980469c2.460938-1.246094 5.484375-.257812 6.734375 2.210938l10.179688 20.121093c.605468 1.195313.710937 2.554688.292968 3.824219zm0 0"/><path d="m106.140625 286.101562c-10.933594-3.734374-23.066406-1.710937-32.460937 5.417969-9.25 7.019531-14.382813 18-13.734376 29.375.835938 14.621094 11.714844 27.964844 25.867188 31.730469 2.785156.742188 5.648438 1.097656 8.507812 1.097656 11.664063 0 23.289063-5.917968 29.707032-15.773437 7.996094-12.269531 7.144531-29.464844-2.019532-40.886719-4.003906-4.992188-9.492187-8.78125-15.867187-10.960938zm11.132813 47.449219c-6.046876 9.28125-18.683594 14.128907-29.386719 11.285157-10.707031-2.851563-19.257813-13.339844-19.890625-24.402344-.503906-8.820313 3.347656-17.015625 10.558594-22.492188 4.867187-3.691406 10.671874-5.617187 16.5-5.617187 2.855468 0 5.71875.464843 8.476562 1.40625 4.855469 1.660156 9.183594 4.632812 12.1875 8.375 6.933594 8.644531 7.601562 22.160156 1.554688 31.445312zm0 0"/></svg>