<svg height="512pt" viewBox="-13.00091552734375 0 512.0018310546875 512.0018310546875" width="512pt" xmlns="http://www.w3.org/2000/svg"  xmlns:xlink="http://www.w3.org/1999/xlink"><rect id="svgEditorBackground" x="-13" y="0" width="512" height="512.002" style="fill:none;stroke:none;"/><path d="M484.914062,482.308594c-4.9335929999999735,-10.617187999999999,-13.351562000000001,-13.886719000000028,-22.238280999999972,-14.960937999999999c-1.6484370000000013,-20.574217999999973,-4.878905999999972,-35.98828100000003,-10.417968999999971,-49.726562c-5.175780999999972,-12.839844000000028,-15.179687000000001,-30.484375,-33.41796799999997,-41.64453199999997c-8.925782000000027,-5.457030999999972,-18.49609399999997,-8.5,-27.66015600000003,-10.050781000000029c-0.19140700000002653,-0.515625,-0.4843759999999975,-1.0039059999999722,-0.8945320000000265,-1.4257809999999722c-25.6875,-26.257812,-48.48046799999997,-55.42578099999997,-67.757812,-86.695312l74.679687,-108.246094c2.65625,-0.07031299999999874,5.3125,-0.38671899999999937,7.921875,-1.0039060000000006c17.828125,-4.222656999999998,29.769532000000027,-18.078125999999997,31.16015600000003,-36.164063c1.4843759999999975,-19.265625,-9.394531000000029,-37.039063,-27.06640600000003,-44.222656c-10.15625,-4.128906999999998,-21.042967999999973,-3.921875,-30.69140600000003,0.1835930000000019c-40.28125,-11.277343000000002,-79.65234399999997,-22.003906,-117.726562,-32.378906c-38.128907,-10.386718000000002,-77.554688,-21.128906,-117.882813,-32.421875c-0.40234399999999937,-0.11328100000000063,-0.8046870000000013,-0.140625,-1.1992189999999994,-0.12890600000000063c-3.3046870000000013,-9.359375,-10.410156,-17.089844,-19.984375,-20.980469c-12.277343000000002,-4.988281,-25.878906,-2.210937,-35.492187,7.25c-9.921875,9.761719,-13,23.78125,-8.03125,36.59375c1.734375,4.480468999999999,4.476562000000001,8.441406,7.859375,11.75l-53.09375,94.355469c-0.578125,1.0234370000000013,-0.6757810000000006,2.25,-0.27734399999999937,3.3515629999999987c0.40234399999999937,1.105468000000002,1.2617189999999994,1.980468000000002,2.359375,2.3945310000000006l8.347656,3.1640620000000013l-12.335937000000001,32.894531c-0.21484399999999937,0.0820319999999981,-0.42968799999999874,0.1757819999999981,-0.6328129999999987,0.2968759999999975l-21.253906,12.828124000000003c-1.90625,1.1484379999999987,-2.5195309999999997,3.628906999999998,-1.3710940000000003,5.535156999999998c0.7578129999999996,1.2539060000000006,2.0898440000000003,1.9492189999999994,3.457031999999999,1.9492189999999994c0.7070310000000006,0,1.4257810000000006,-0.1875,2.078123999999999,-0.5820319999999981l19.941407,-12.03125l6.078125,22.839844c0.4804680000000019,1.8046879999999987,2.109375,2.9960939999999994,3.8945310000000006,2.9960939999999994c0.34375,0,0.6914060000000006,-0.04296899999999937,1.0390629999999987,-0.13671899999999937c2.152343000000002,-0.5703129999999987,3.4296870000000013,-2.78125,2.8593740000000025,-4.933593999999999l-7.011718000000002,-26.335937c-0.15625,-0.5859379999999987,-0.44140600000000063,-1.0976560000000006,-0.8046879999999987,-1.53125l11.601562999999999,-30.933594l9.019531,3.4140620000000013c0.46875,0.17968799999999874,0.9492189999999994,0.26171899999999937,1.4257810000000006,0.26171899999999937c1.5117189999999994,0,2.9492189999999994,-0.8554689999999994,3.6367189999999994,-2.2929689999999994l45.320312,-94.847656c0.3476569999999981,-0.7265620000000013,0.44921899999999937,-1.5039060000000006,0.35546899999999937,-2.2460939999999994c0.13671899999999937,0.003906999999998106,0.27343799999999874,0.015625999999997475,0.4101569999999981,0.015625999999997475c2.4296870000000013,0,4.863281000000001,-0.2695319999999981,7.257812000000001,-0.8359379999999987c4.140625,-0.9804689999999994,7.875,-2.6210939999999994,11.144531,-4.78125l220.066407,73.9375c-15.167969000000028,12.960937999999999,-31.390625999999997,26.601562,-47.13671900000003,39.832031c-17.03125,14.316406999999998,-34.640625,29.117188,-50.867188,43.027344c-10.972656,1.9726560000000006,-21.378906,7.296875,-29.945312,15.726562999999999c-17.015625,16.742187,-22.300781,40.78515600000003,-13.785156999999998,62.742187c5.2656259999999975,13.582030999999972,15.832031999999998,24.503905999999972,28.574219,31.105469000000028c-0.1523430000000019,0.953125,0.023437999999998738,1.9609370000000013,0.59375,2.832030999999972l45.179688,69.0625c0.32031200000000126,0.4882809999999722,0.7304690000000278,0.8789059999999722,1.1914059999999722,1.1757809999999722c-15.789062999999999,15.675782000000027,-27.617187,35.460938,-33.757813,56.8125c-0.33203100000000063,1.1523440000000278,-0.11328100000000063,2.328125,0.4843759999999975,3.2695320000000265l-3.6484379999999987,-0.08203200000002653c-7.140625,-0.1601559999999722,-16.925781,-0.3710940000000278,-24.652344,4.632812999999999c-6.644531000000001,4.300780999999972,-10.761718000000002,11.925780999999972,-10.746094,19.894530999999972c0.019531999999998106,7.851562000000001,4.101562999999999,15.472656000000029,10.652344,19.890625c7.226562999999999,4.878905999999972,16.320313,5.296875,23.546875,5.296875c0.7773439999999994,0,1.53125,-0.0039059999999722095,2.2617189999999994,-0.007812000000001262l215.63671900000003,-1.375c4.476562000000001,-0.02734400000002779,10.046875,-0.0625,14.902342999999973,-2.875c8.105468999999971,-4.699219000000028,11.175782000000027,-16.105469000000028,6.84375,-25.433594000000028ZM406.1875,95.63671900000003c16.640625,6.765625,23.070312,23.023437,22.0625,36.132812c-1.1328120000000013,14.683594,-10.46875,25.5,-24.976562,28.933594c-15.832032000000027,3.75,-34.21484400000003,-6.050781000000001,-40.164063,-21.390625c-4.9375,-12.746094,-1.8554690000000278,-26.71875,8.046875,-36.460938c6.402344000000028,-6.2968740000000025,14.566406000000029,-9.613281,22.90625,-9.613281c4.0625,0.003906999999998106,8.164062000000001,0.7890629999999987,12.125,2.3984379999999987ZM365.5,97.10546900000003c-8.957031000000029,8.8125,-13.386718999999971,20.441406,-12.714843999999971,32.238281l-74.32421799999997,-24.96875l9.894531000000029,-32.535156c26.36328100000003,7.195312000000001,53.28515600000003,14.585937000000001,80.62890600000003,22.21875c-1.1953129999999987,0.9492180000000019,-2.3671870000000013,1.949218000000002,-3.484375,3.046875ZM280.57421899999997,69.71875000000003l-9.757812999999999,32.085938l-76.378906,-25.660156999999998l5.984375,-28.308593000000002c19.714844,5.410156000000001,39.152344,10.707031,58.261719,15.914062000000001c7.246094000000028,1.9765620000000013,14.554687000000001,3.96875,21.890625,5.96875ZM192.63281199999997,45.69921900000003l-5.8906240000000025,27.859375l-50.316407,-16.902344c4.128906999999998,-5,6.695312999999999,-11.289062000000001,7.242187999999999,-18.394531c0.16015600000000063,-2.0742189999999994,0.13671899999999937,-4.128906999999998,-0.046875,-6.144531000000001c16.503906,4.613281000000001,32.847656,9.136718000000002,49.011718,13.582031ZM59.35546899999997,158.71093800000003l-17.050781,-6.457031999999998l50.203124,-89.207031c3.2421879999999987,1.9921870000000013,6.777343999999999,3.4921870000000013,10.457031999999998,4.398437000000001ZM116.51953099999997,59.77343800000003c-12.128906,2.871093000000002,-26.226562,-4.6406259999999975,-30.789062,-16.40625c-4.523437999999999,-11.667969,0.22265600000000063,-22.078126,6.171875,-27.929688c4.902343999999999,-4.824218999999999,11.152344,-7.359375,17.53125,-7.359375c3.105468000000002,0,6.242187000000001,0.5976560000000006,9.265625,1.828125c12.769531,5.191406000000001,17.703125,17.671875,16.929687,27.734375c-0.8671870000000013,11.234375,-8.007812000000001,19.507813,-19.109375,22.132813ZM307.640625,182.78125000000003c16.023437,-13.464844,32.54296899999997,-27.351562,47.960937,-40.539062c5.3281259999999975,13.730468000000002,18.199219000000028,23.671874000000003,32.359376,26.511718000000002l-68.80859400000003,99.742188c-3.375,-18.210938,-14.90625,-36.667969,-36.77734399999997,-45.5625c-5.726562000000001,-2.328125,-11.621093999999971,-3.65625,-17.5,-4.046875c13.890625,-11.832031,28.523438,-24.136719,42.765625,-36.105469ZM215.371094,295.19140600000003c-7.332031999999998,-18.91015600000003,-2.7617189999999994,-39.632812,11.921875,-54.082031c14.136719,-13.90625,34.082031,-18.007813,52.042969,-10.703125c24.648437,10.019531,34.171874,34.082031,32.67578099999997,53.488281c-1.6796879999999987,21.82421899999997,-15.550781000000029,37.898438,-37.101563,43c-23.460937,5.554687999999999,-50.722656,-8.964842999999973,-59.539062,-31.703125ZM288.953125,396.69140600000003l-41.171875,-62.929687c5.378906000000001,1.5703120000000013,10.953125,2.4140620000000013,16.54296899999997,2.4140620000000013c4.164062000000001,0,8.34375,-0.46484299999997347,12.441406000000029,-1.4335929999999735c23.48828100000003,-5.558594000000028,39.609375,-23.160157000000027,42.859375,-46.390626c17.36328100000003,27.253907000000027,37.375,52.867188,59.617188,76.304688c-5.480469000000028,-0.25781200000000126,-10.605469000000028,-0.07421900000002779,-15.097657000000027,0.3085940000000278c-26.113280999999972,2.234375,-51.640625,12.628906000000029,-71.882812,29.26953100000003c-1.078125,0.8867190000000278,-2.1289070000000265,1.796875,-3.175780999999972,2.714844000000028c-0.046875999999997475,-0.08593799999999874,-0.07812599999999748,-0.1757809999999722,-0.13281299999999874,-0.25781299999999874ZM257.382812,461.32031200000006c6.8007820000000265,-23.62890600000003,21.003907000000027,-45.242187,40,-60.859374c18.996094000000028,-15.613282000000027,42.94921900000003,-25.367188,67.44921900000003,-27.460938c13.480468999999971,-1.15625,33.0625,-0.3789059999999722,49.80078100000003,9.855469000000028c16.359375999999997,10.007812000000001,25.425782000000027,26.070312,30.144532000000027,37.78515600000003c5.121094000000028,12.691406000000029,8.160156000000029,27.046875,9.769531000000029,46.19140600000003c-1.0820309999999722,-0.023437000000001262,-2.160155999999972,-0.04296900000002779,-3.222655999999972,-0.05859299999997347c-0.9375,-0.01171900000002779,-1.8710940000000278,-0.02734400000002779,-2.800780999999972,-0.046875999999997475l-191.726563,-4.2148429999999735c0.25,-0.359375,0.46093700000000126,-0.75,0.5859370000000013,-1.1914070000000265ZM474.03125,500.75781200000006c-3.003905999999972,1.7421879999999987,-7.207030999999972,1.7695320000000265,-10.914062000000001,1.7929690000000278l-215.636719,1.375c-8.378906999999998,0.05078099999997221,-15.753906999999998,-0.203125,-21.25,-3.910155999999972c-4.296875,-2.8984370000000013,-7.082031000000001,-8.089843999999971,-7.09375,-13.226562999999999c-0.011718999999999369,-5.175780999999972,2.7617189999999994,-10.320312000000001,7.0625,-13.109374000000003c4.386718999999999,-2.8359379999999987,10,-3.386719000000028,16.367187,-3.386719000000028c1.2148439999999994,0,2.4609379999999987,0.023437000000001262,3.7265629999999987,0.05078099999997221l202.050781,4.441405999999972c0.9492190000000278,0.019532000000026528,1.9023440000000278,0.03515599999997221,2.855469000000028,0.05078200000002653c11.539062000000001,0.1757809999999722,21.503905999999972,0.3281240000000025,26.398437,10.867187000000001c2.25,4.84375,1.3359379999999987,12.214844000000028,-3.566405999999972,15.054687000000001ZM474.03125,500.75781200000006" style="fill:#696969;"/><path d="M376.308594,381.597656c-16.417969000000028,-2.941405999999972,-31.785155999999972,4.570312999999999,-39.164063,19.136719000000028c-6.867187000000001,13.570312999999999,-4.144530999999972,31.32421899999997,6.4726570000000265,42.21484399999997c6.914062000000001,7.0898429999999735,16.820312,10.90625,26.683592999999973,10.90625c5.2851570000000265,0,10.558593999999971,-1.0976570000000265,15.355468999999971,-3.375c13.738281000000029,-6.523437999999999,22.453125,-22.226563,20.726562,-37.335938c-1.8554679999999735,-16.222655999999972,-13.660155999999972,-28.605469000000028,-30.074217999999973,-31.546875ZM382.195312,443.19921899999997c-10.722655999999972,5.0898429999999735,-24.515624000000003,2.6171870000000013,-32.804687,-5.8789070000000265c-8.285156000000029,-8.5,-10.410156000000029,-22.355467999999973,-5.046875,-32.945312c6.957030999999972,-13.746094000000028,20.796875,-16.585938,30.54296899999997,-14.839844000000028c9.738281000000029,1.7460940000000278,21.734375,9.214843999999971,23.48828100000003,24.52734399999997c1.3476559999999722,11.789062000000001,-5.457030999999972,24.046875,-16.179688,29.13671899999997ZM382.195312,443.19921899999997" style="fill:#696969;"/><path d="M289.753906,280.722656c0.984375,-12.757812000000001,-6.222655999999972,-24.53125,-17.933594000000028,-29.289062c-10.066406000000029,-4.09375,-21.210937,-1.8164060000000006,-29.089843000000002,5.933594000000028c-8.121094,7.992187000000001,-10.640625,19.472655999999972,-6.574218999999999,29.96484300000003c4.210937999999999,10.855468999999971,15.523437999999999,18.14453100000003,26.929688,18.14453100000003c1.9882809999999722,0,3.9843740000000025,-0.2226559999999722,5.941405999999972,-0.6875c11.855467999999973,-2.8046870000000013,19.796875,-12.027342999999973,20.726562,-24.06640600000003ZM267.16796899999997,296.941406c-9.25,2.1953129999999987,-20.011719,-3.5429679999999735,-23.492188,-12.523437000000001c-3.4492189999999994,-8.898437999999999,0.16796899999999937,-16.83984399999997,4.707031000000001,-21.30078100000003c3.7734379999999987,-3.7109379999999987,8.437499999999972,-5.6445320000000265,13.253906999999998,-5.6445320000000265c2.375,0,4.785155999999972,0.46875,7.144530999999972,1.4296879999999987c9.757812000000001,3.964844000000028,13.527344000000028,13.503905999999972,12.933594000000028,21.199217999999973c-0.65625,8.546875999999997,-6.09375,14.84375,-14.546875,16.839844000000028ZM267.16796899999997,296.941406" style="fill:#696969;"/><path d="M395.320312,148.144531c1.4726570000000265,0,2.9531259999999975,-0.16406200000000126,4.40625,-0.5078120000000013c8.8125,-2.0859379999999987,14.71875,-8.945312999999999,15.40625,-17.894531c0.7265629999999987,-9.441406999999998,-4.6093740000000025,-18.152344,-13.277342999999973,-21.675781999999998c-7.484375,-3.042968000000002,-15.769530999999972,-1.355468000000002,-21.628907000000027,4.40625c-6.019530999999972,5.925781999999998,-7.8867179999999735,14.441406,-4.867187000000001,22.226563c3.1171870000000013,8.046875,11.503906000000029,13.445312000000001,19.960937,13.445312000000001ZM385.882812,118.21875c2.3984379999999987,-2.359375,5.3593759999999975,-3.5859379999999987,8.414062999999999,-3.5859379999999987c1.5039059999999722,0,3.027344000000028,0.2968759999999975,4.519530999999972,0.9023439999999994c6.246094000000028,2.5390629999999987,8.65625,8.652344,8.277344000000028,13.585937999999999c-0.4179690000000278,5.414062000000001,-3.863280999999972,9.402344,-9.222656000000029,10.667968000000002c-5.910155999999972,1.4023439999999994,-12.773437999999999,-2.2656240000000025,-14.996093999999971,-8c-2.1953120000000013,-5.664062000000001,0.11328099999997221,-10.722656,3.0078120000000013,-13.570312000000001ZM385.882812,118.21875" style="fill:#696969;"/><path d="M115.90625,18.179688c-6.234375,-2.535157,-13.136719,-1.1328129999999987,-18.011719,3.6640620000000013c-5.007812000000001,4.925781000000001,-6.558593000000002,12.011719,-4.046875,18.488281c2.5898439999999994,6.683593999999999,9.558594,11.167969,16.589844,11.167969c1.2265620000000013,0,2.4570310000000006,-0.13671899999999937,3.6640620000000013,-0.421875c7.339843999999999,-1.7382810000000006,12.257812999999999,-7.449218999999999,12.832031999999998,-14.910156c0.6054680000000019,-7.832031000000001,-3.828125,-15.0625,-11.027344,-17.988281ZM118.894531,35.546875c-0.14453100000000063,1.8710939999999994,-1.0820310000000006,6.367187000000001,-6.648437000000001,7.683593999999999h-0.003906000000000631c-4.28125,1.015625,-9.261719,-1.6484379999999987,-10.878906999999998,-5.8125c-1.5859370000000013,-4.097656999999998,0.08984399999999937,-7.761718999999999,2.1875,-9.828125c1.7304689999999994,-1.703125,3.8710939999999994,-2.5898439999999994,6.074218999999999,-2.5898439999999994c1.078125,0,2.1757810000000006,0.21093799999999874,3.2460939999999994,0.6484379999999987c4.542968000000002,1.8476560000000006,6.300781000000001,6.304687000000001,6.023437000000001,9.898437000000001ZM118.894531,35.546875" style="fill:#696969;"/><path d="M187.980469,294.765625c1.089843000000002,-3.3203129999999987,0.8203120000000013,-6.863280999999972,-0.7539069999999981,-9.980468999999971l-10.183593000000002,-20.12109399999997c-3.253906999999998,-6.429687000000001,-11.136719,-9.019531,-17.566406999999998,-5.7617179999999735l-17.121093000000002,8.664062000000001c-1.0380433798154343,-6.531249999998636,-14.910156999999998,-11.667968000000002,-23.683594,-15.039062000000001v-18.707031999999998c0,-7.210937000000001,-5.867187000000001,-13.074218000000002,-13.074219,-13.074218000000002h-22.550781c-7.210937000000001,0,-13.074219,5.863281000000001,-13.074219,13.074218000000002v17.960938c-9.257812000000001,3.2304689999999994,-17.808594,8.398438000000027,-25.011718000000002,15.113281l-15.792969,-7.992187000000001c-3.1171879999999987,-1.578125,-6.664062999999999,-1.84375,-9.980469,-0.7578129999999987c-3.3164060000000006,1.0898440000000278,-6.011718999999999,3.40625,-7.589843999999999,6.519530999999972l-10.179687,20.12109399999997c-1.578125,3.1171879999999987,-1.8476570000000008,6.660155999999972,-0.757813,9.980468999999971c1.0898439999999998,3.316405999999972,3.4023440000000007,6.011719000000028,6.519531999999999,7.589844000000028l15.742187,7.9648429999999735c-0.33203100000000063,2.808594000000028,-0.5039060000000006,5.625,-0.5039060000000006,8.410157000000027c0,3.035155999999972,0.20703100000000063,6.125,0.6132810000000006,9.214842999999973l-15.851562,8.023437999999999c-3.1171880000000005,1.5742190000000278,-5.4296880000000005,4.269530999999972,-6.519532,7.589844000000028c-1.0898440000000003,3.316405999999972,-0.8203119999999995,6.859375,0.7578130000000001,9.976562000000001l10.179687,20.12109399999997c1.578125,3.1171879999999987,4.273437999999999,5.429687999999999,7.589843999999999,6.519530999999972c3.3203120000000013,1.0898440000000278,6.863281000000001,0.8203129999999987,9.980469,-0.7578120000000013l16.398437,-8.296875c7.066406000000001,6.4375,15.410156,11.414062000000001,24.40625,14.554687000000001v18.828125c0,7.2070320000000265,5.863281999999998,13.074219000000028,13.070312999999999,13.074219000000028h22.550781c7.210937999999999,0,13.074219,-5.867187000000001,13.074219,-13.074218999999971v-19.574217999999973c8.523437000000001,-3.2734379999999987,16.417969,-8.21875,23.097656,-14.472657000000027l17.707031,8.960937999999999c6.429687999999999,3.253905999999972,14.3125,0.671875,17.570313,-5.761719000000028l10.179687000000001,-20.12109399999997c3.2539060000000006,-6.433594000000028,0.6679689999999994,-14.3125,-5.761718000000002,-17.56640600000003l-17.742188,-8.980468999999971c0.32031200000000126,-2.753905999999972,0.484375,-5.523437000000001,0.484375,-8.257812000000001c0,-2.4609379999999987,-0.13281299999999874,-4.953125,-0.39453100000000063,-7.4414070000000265l17.648437,-8.933592999999973c3.1210939999999994,-1.578125,5.4375,-4.273437999999999,6.523437999999999,-7.589844000000028ZM180.320312,292.25c-0.4179680000000019,1.2734379999999987,-1.3046870000000013,2.308594000000028,-2.5,2.910155999999972l-20.183593000000002,10.214844000000028c-1.546875,0.78125,-2.421875,2.464844000000028,-2.1679689999999994,4.179687999999999c0.44531200000000126,3.0625,0.671875,6.148437000000001,0.671875,9.175780999999972c0,3.2890620000000013,-0.265625,6.628905999999972,-0.7890629999999987,9.925781000000029c-0.27343700000000126,1.7304690000000278,0.6015629999999987,3.441405999999972,2.1640629999999987,4.230469000000028l20.304687,10.273437000000001c2.46875,1.2460940000000278,3.457031999999998,4.2695320000000265,2.2109379999999987,6.734375l-10.183594,20.12109399999997c-1.2460939999999994,2.464844000000028,-4.265625,3.457030999999972,-6.730468000000002,2.2109370000000013l-20.28125,-10.265624000000003c-1.566406999999998,-0.7929690000000278,-3.4648439999999994,-0.4804690000000278,-4.695312999999999,0.7734370000000013c-6.90625,7.035155999999972,-15.476562999999999,12.40625,-24.785156,15.539062999999999c-1.640625,0.5507809999999722,-2.7460939999999994,2.0898429999999735,-2.7460939999999994,3.8203120000000013v22.40625c0,2.765625,-2.25,5.011719000000028,-5.011718999999999,5.011719000000028h-22.550781c-2.765625,0,-5.011718999999999,-2.246094000000028,-5.011718999999999,-5.011719000000028v-21.75390600000003c0,-1.7773440000000278,-1.1640620000000013,-3.347655999999972,-2.8671870000000013,-3.859375c-9.765625,-2.9414070000000265,-18.773438,-8.304687999999999,-26.050781,-15.511718999999971c-0.7734379999999987,-0.765625,-1.7968759999999975,-1.1679690000000278,-2.8398439999999994,-1.1679690000000278c-0.6171879999999987,0,-1.238281999999998,0.1445309999999722,-1.8164060000000006,0.4375l-18.933594,9.578125c-1.1953129999999987,0.6054690000000278,-2.5546879999999987,0.7109379999999987,-3.8242189999999994,0.2929690000000278c-1.2734370000000013,-0.4179690000000278,-2.3046870000000013,-1.3085940000000278,-2.9101560000000006,-2.5l-10.179688,-20.12109399999997c-0.6054689999999994,-1.1953120000000013,-0.7109370000000004,-2.5546870000000013,-0.29296899999999937,-3.824219000000028c0.41796899999999937,-1.2734370000000013,1.3046880000000005,-2.3046870000000013,2.5,-2.910155999999972l18.457031999999998,-9.339843999999971c1.5820310000000006,-0.8007809999999722,2.453125,-2.5390620000000013,2.1523439999999994,-4.285155999999972c-0.6289070000000017,-3.621094000000028,-0.9453129999999987,-7.257812000000001,-0.9453129999999987,-10.808594000000028c0,-3.3281240000000025,0.27343700000000126,-6.7148429999999735,0.8125,-10.0625c0.27734399999999937,-1.7304679999999735,-0.5976560000000006,-3.4453120000000013,-2.1601560000000006,-4.238280999999972l-18.316407,-9.265625c-1.1953119999999995,-0.6054679999999735,-2.0820310000000006,-1.6367179999999735,-2.5,-2.910155999999972c-0.4140620000000004,-1.2734379999999987,-0.3125,-2.628905999999972,0.29296899999999937,-3.824219000000028l10.179688000000002,-20.121092999999973c0.6054689999999994,-1.1953129999999987,1.6367189999999994,-2.0820320000000265,2.9101560000000006,-2.5c1.2734370000000013,-0.4179690000000278,2.6289060000000006,-0.3125,3.8242189999999994,0.28906200000000126l18.363281,9.292968999999971c1.5625,0.7929690000000278,3.4570310000000006,0.4804690000000278,4.691406000000001,-0.765625c7.378906999999998,-7.484375,16.570313,-13.039062999999999,26.582031,-16.050782000000027c1.707031999999998,-0.5156240000000025,2.8710939999999994,-2.082030999999972,2.8710939999999994,-3.8632810000000006v-20.890625c0,-2.761718000000002,2.2460939999999994,-5.007812000000001,5.007812999999999,-5.007812000000001h22.550781c2.765625,0,5.011718999999999,2.2460939999999994,5.011718999999999,5.007812000000001v21.542969c0,1.7304690000000278,1.1054689999999994,3.269530999999972,2.746093000000002,3.8203129999999987c9.546875999999997,3.2148429999999735,18.300781999999998,8.777342999999973,25.308594,16.089842999999973c1.2265629999999987,1.28125,3.1484379999999987,1.6054690000000278,4.730468999999999,0.8046879999999987l19.722656,-9.980469000000028c2.4609379999999987,-1.2460940000000278,5.484375,-0.25781200000000126,6.734375,2.2109379999999987l10.179687999999999,20.121092999999973c0.6054680000000019,1.1953129999999987,0.7109370000000013,2.5546879999999987,0.2929680000000019,3.824219000000028ZM180.320312,292.25" style="stroke:#C6CACF;fill:#696969;"/><path d="M106.140625,286.101562c-10.933594,-3.7343740000000025,-23.066406,-1.7109370000000013,-32.460937,5.417969000000028c-9.25,7.019530999999972,-14.382812999999999,18,-13.734375999999997,29.375c0.8359379999999987,14.621093999999971,11.714844,27.96484399999997,25.867188,31.73046899999997c2.7851560000000006,0.7421879999999987,5.648437999999999,1.0976559999999722,8.507812000000001,1.0976559999999722c11.664062999999999,0,23.289063,-5.9179679999999735,29.707031999999998,-15.773437000000001c7.996093999999999,-12.269531000000029,7.144531000000001,-29.46484399999997,-2.019531999999998,-40.88671899999997c-4.003906000000001,-4.992187999999999,-9.492187000000001,-8.78125,-15.867187000000001,-10.960937999999999ZM117.273438,333.55078100000003c-6.0468759999999975,9.28125,-18.683594,14.128907000000027,-29.386719,11.285157000000027c-10.707031,-2.8515629999999987,-19.257813,-13.339843999999971,-19.890625,-24.40234399999997c-0.5039060000000006,-8.820312999999999,3.3476560000000006,-17.015625,10.558594,-22.492188c4.867187000000001,-3.691405999999972,10.671874000000003,-5.617187000000001,16.5,-5.617187000000001c2.855468000000002,0,5.71875,0.46484299999997347,8.476562000000001,1.40625c4.855468999999999,1.6601559999999722,9.183594,4.632812000000001,12.1875,8.375c6.933593999999999,8.644531000000029,7.601562000000001,22.16015600000003,1.5546879999999987,31.445312ZM117.273438,333.55078100000003" style="fill:#696969;"/></svg>